<?xml version="1.0" standalone="no"?>
<!DOCTYPE svg PUBLIC "-//W3C//DTD SVG 20010904//EN"
 "http://www.w3.org/TR/2001/REC-SVG-20010904/DTD/svg10.dtd">
<svg version="1.0" xmlns="http://www.w3.org/2000/svg"
 width="1024.000000pt" height="1024.000000pt" viewBox="0 0 1024.000000 1024.000000"
 preserveAspectRatio="xMidYMid meet">

<g transform="translate(0.000000,1024.000000) scale(0.100000,-0.100000)"
fill="#000000" stroke="none">
<path d="M3020 8410 c-567 -45 -1042 -423 -1225 -974 -75 -225 -70 -75 -70
-2321 l0 -2010 23 -112 c29 -145 62 -244 121 -369 135 -283 363 -515 648 -659
148 -74 344 -129 508 -143 44 -4 998 -7 2120 -7 2186 0 2116 -2 2310 50 194
53 384 149 525 268 320 269 497 607 530 1012 8 88 10 761 8 2070 -3 1833 -4
1945 -22 2035 -103 533 -471 954 -967 1104 -211 64 -46 59 -2334 61 -1144 1
-2123 -1 -2175 -5z m1941 -1419 c58 -18 102 -69 139 -162 18 -46 74 -185 125
-309 90 -220 152 -371 490 -1205 91 -225 183 -453 205 -505 48 -117 228 -559
385 -945 64 -159 135 -332 157 -383 35 -84 38 -97 28 -128 -21 -64 -23 -64
-341 -64 -308 0 -330 3 -377 53 -27 28 -83 160 -304 712 -87 220 -192 481
-233 580 -40 99 -108 268 -150 375 -72 182 -158 398 -295 735 -44 110 -61 141
-76 143 -29 4 -35 -6 -88 -148 -74 -195 -333 -835 -378 -933 -22 -48 -37 -94
-34 -102 4 -12 59 -15 320 -17 l316 -3 24 -25 c15 -15 69 -132 131 -285 102
-248 106 -262 95 -297 -6 -21 -19 -42 -30 -48 -12 -6 -208 -10 -545 -10 -598
0 -574 3 -617 -78 -14 -26 -69 -157 -123 -292 -115 -291 -126 -311 -175 -339
-36 -20 -51 -21 -340 -21 l-302 0 -29 29 c-16 16 -29 39 -29 51 0 11 39 116
86 233 48 117 128 318 179 447 51 129 187 471 303 760 116 289 258 644 315
790 58 146 170 429 250 630 80 201 166 419 191 485 66 174 103 243 140 263 53
29 500 38 587 13z m2323 -16 l26 -24 0 -335 0 -334 -31 -26 -31 -26 -684 0
c-727 0 -713 -1 -755 46 -10 11 -46 91 -82 179 -36 88 -91 222 -122 298 -45
111 -55 144 -50 170 9 38 22 56 50 67 11 5 387 9 836 9 l816 1 27 -25z m-201
-1506 c44 -20 47 -42 47 -365 l0 -305 -25 -24 -24 -25 -326 0 c-326 0 -326 0
-349 23 -26 26 -256 596 -256 634 0 13 11 35 25 48 l24 25 430 0 c294 0 438
-4 454 -11z"/>
</g>
</svg>
